<?xml version="1.0" encoding="UTF-8"?>
<svg version="1.1" xmlns="http://www.w3.org/2000/svg" width="397" height="388">
<path d="M0 0 C131.01 0 262.02 0 397 0 C397 128.04 397 256.08 397 388 C265.99 388 134.98 388 0 388 C0 259.96 0 131.92 0 0 Z " fill="#FDFEFE" transform="translate(0,0)"/>
<path d="M0 0 C1.85900017 0.00561328 3.71800486 0.00987515 5.57701111 0.01286316 C10.40858783 0.02417586 15.23988274 0.05352161 20.0713501 0.0869751 C25.02604361 0.11797326 29.98078381 0.13143127 34.93554688 0.14648438 C44.61210123 0.17840802 54.28844882 0.22943432 63.96484375 0.29296875 C64.01050648 3.50776528 64.03808352 6.72247742 64.0625 9.9375 C64.07559204 10.84375122 64.08868408 11.75000244 64.10217285 12.68371582 C64.17107928 24.78092795 59.52512453 32.33749033 51.34375 41.01171875 C41.35820002 50.39861465 28.2822757 52.58817129 15.11328125 52.53125 C13.02343106 52.54667634 10.93358719 52.56298046 8.84375 52.58007812 C5.59897705 52.59645106 2.35467375 52.60550126 -0.89013672 52.59838867 C-22.98178029 52.57986954 -39.04145876 56.3215462 -55.734375 71.81640625 C-60.16002427 76.58017813 -63.97024546 82.09823639 -66.03515625 88.29296875 C-24.45515625 88.29296875 17.12484375 88.29296875 59.96484375 88.29296875 C60.27734375 122.48046875 60.27734375 122.48046875 60.3527832 133.25854492 C60.38936579 136.45849738 60.38936579 136.45849738 60.42985535 139.65840149 C60.4459603 141.07896411 60.4562788 142.49959976 60.46195984 143.92024231 C60.47172719 146.07767529 60.50009498 148.23416067 60.5324707 150.39135742 C60.54357376 151.60603195 60.55467682 152.82070648 60.56611633 154.07218933 C61.00334205 157.60394448 61.74327975 159.52513593 63.96484375 162.29296875 C67.46484375 163.12630208 67.46484375 163.12630208 70.96484375 162.29296875 C74.41375569 157.75095904 76.3562948 152.00861205 78.58984375 146.79296875 C79.0286084 145.77702637 79.46737305 144.76108398 79.91943359 143.71435547 C82.45776152 137.82992536 84.96925449 131.93427198 87.47436523 126.03564453 C88.93661516 122.60420577 90.41423926 119.17959788 91.89892578 115.7578125 C92.60620871 114.12228148 93.30776964 112.48426341 94.00341797 110.84375 C101.25619148 93.81761247 101.25619148 93.81761247 108.96484375 89.29296875 C109.55523437 88.94105469 110.145625 88.58914062 110.75390625 88.2265625 C118.42027598 84.58911473 128.56019485 85.07779158 136.40234375 87.85546875 C145.95055455 91.6986663 149.97368707 100.53485088 153.83984375 109.41796875 C154.35667725 110.57159912 154.87351074 111.72522949 155.40600586 112.91381836 C156.94521435 116.36531185 158.45996014 119.82638913 159.96484375 123.29296875 C160.37524902 124.23640137 160.7856543 125.17983398 161.20849609 126.15185547 C163.04560362 130.39030816 164.86107082 134.6375607 166.6640625 138.890625 C169.34690258 145.20996633 172.08716252 151.50378428 174.83984375 157.79296875 C175.30463135 158.86232666 175.76941895 159.93168457 176.24829102 161.03344727 C176.68842529 162.03690186 177.12855957 163.04035645 177.58203125 164.07421875 C177.96987793 164.96173828 178.35772461 165.84925781 178.75732422 166.76367188 C180.01937616 169.40719353 181.30562594 171.87624698 182.96484375 174.29296875 C185.50775 174.8764738 185.50775 174.8764738 187.96484375 174.29296875 C190.70230664 171.55550586 190.21526276 170.05561213 190.21640015 166.22189331 C190.22178299 164.92651138 190.22716583 163.63112946 190.23271179 162.29649353 C190.2286971 160.85244708 190.22452617 159.40840106 190.22021484 157.96435547 C190.22296365 156.44996451 190.22664288 154.93557499 190.23118591 153.42118835 C190.23931156 150.15432668 190.24146289 146.8875335 190.23923874 143.62066269 C190.23640987 138.45148867 190.2507432 133.28245183 190.26821899 128.11331177 C190.3152819 113.41215086 190.33917664 98.71099847 190.34570312 84.00976562 C190.34945793 75.89458491 190.36752469 67.77955863 190.40079749 59.66444409 C190.42098744 54.53005574 190.42339302 49.3960664 190.41251731 44.26165462 C190.40990311 41.05882873 190.42394942 37.85623318 190.44259834 34.65346718 C190.4479043 33.17328164 190.44645091 31.69305326 190.43756294 30.2128849 C190.3865309 20.96451566 190.62853077 14.24136567 196.9296875 7.05078125 C197.58066406 6.51195313 198.23164063 5.973125 198.90234375 5.41796875 C199.55074219 4.86367187 200.19914062 4.309375 200.8671875 3.73828125 C208.06058771 -1.21806527 217.36375351 -0.65921659 225.69921875 0.7578125 C232.57554327 2.7614312 237.15251037 6.52000169 241.03482056 12.46014404 C244.1191423 18.78845514 243.50611279 25.73564115 243.45068359 32.60644531 C243.45283218 34.15464091 243.45671392 35.70283493 243.46218872 37.25102234 C243.47184821 41.43939758 243.45661865 45.62734376 243.43628263 49.81566715 C243.41864369 54.21294179 243.42223813 58.61020451 243.42300415 63.00750732 C243.42113334 70.39488852 243.40380417 77.78210504 243.37646484 85.16943359 C243.34506303 93.68541818 243.33446725 102.20122228 243.33593595 110.7172606 C243.33729225 119.81263651 243.32337503 128.9079437 243.30504274 138.00329876 C243.30079975 140.60972802 243.29936304 143.21614604 243.29856491 145.82257843 C243.2965398 149.93651626 243.28419961 154.05030551 243.26423264 158.16419411 C243.25844345 159.66527965 243.25591939 161.16638231 243.25708771 162.66747856 C243.26281718 174.52156233 242.9630447 185.9264212 237.21484375 196.54296875 C236.67923828 197.56571899 236.67923828 197.56571899 236.1328125 198.60913086 C229.03058434 211.89876164 219.8154654 220.72276421 205.33203125 225.48828125 C189.56815304 230.09163156 175.17220249 229.67917438 160.33984375 222.04296875 C141.15221039 210.57887734 131.4390518 192.07907223 124.96484375 171.29296875 C124.30484375 171.29296875 123.64484375 171.29296875 122.96484375 171.29296875 C122.88234375 172.28296875 122.79984375 173.27296875 122.71484375 174.29296875 C122.1920916 177.8462705 120.96415917 180.70082087 119.25 183.87109375 C118.26463243 185.72801744 117.34726676 187.62116031 116.4609375 189.52734375 C107.65380498 208.24505463 94.68977639 219.83106296 75.38671875 227.2890625 C68.29568718 229.8095142 61.31083045 230.44254129 53.80493164 230.45410156 C53.02006378 230.45906647 52.23519592 230.46403137 51.42654419 230.46914673 C48.8468536 230.48366937 46.26722464 230.49055621 43.6875 230.49609375 C42.79818724 230.49892113 41.90887447 230.5017485 40.99261284 230.50466156 C36.2798216 230.51961936 31.56706066 230.52886848 26.85424805 230.53320312 C22.02998342 230.53866135 17.20600479 230.56264291 12.38182926 230.59117508 C8.63501732 230.60997561 4.88827163 230.61501637 1.14141655 230.616539 C-0.63446161 230.61953047 -2.41033961 230.62743733 -4.18617058 230.64072418 C-36.51742117 230.86522786 -65.79064587 220.15665716 -89.03515625 197.29296875 C-89.95683594 196.38804687 -90.87851563 195.483125 -91.828125 194.55078125 C-100.96323955 185.00494062 -116.03515625 167.22362264 -116.03515625 153.29296875 C-116.69515625 153.29296875 -117.35515625 153.29296875 -118.03515625 153.29296875 C-126.87752633 120.32691986 -125.7469114 87.63374852 -108.9140625 57.421875 C-94.16129132 32.85437039 -70.30282335 12.64247999 -42.53515625 4.48046875 C-40.70462151 4.07188864 -38.87065807 3.67862171 -37.03515625 3.29296875 C-35.86316177 3.0415361 -34.6911673 2.79010345 -33.48365784 2.53105164 C-22.25480288 0.26494279 -11.42630063 -0.10321952 0 0 Z " fill="#6A76C9" transform="translate(136.03515625,85.70703125)"/>
<path d="M0 0 C1.85900017 0.00561328 3.71800486 0.00987515 5.57701111 0.01286316 C10.40858783 0.02417586 15.23988274 0.05352161 20.0713501 0.0869751 C25.02604361 0.11797326 29.98078381 0.13143127 34.93554688 0.14648438 C44.61210123 0.17840802 54.28844882 0.22943432 63.96484375 0.29296875 C64.01050648 3.50776528 64.03808352 6.72247742 64.0625 9.9375 C64.07559204 10.84375122 64.08868408 11.75000244 64.10217285 12.68371582 C64.17107928 24.78092795 59.52512453 32.33749033 51.34375 41.01171875 C41.35820002 50.39861465 28.2822757 52.58817129 15.11328125 52.53125 C13.02343106 52.54667634 10.93358719 52.56298046 8.84375 52.58007812 C5.59897705 52.59645106 2.35467375 52.60550126 -0.89013672 52.59838867 C-22.98178029 52.57986954 -39.04145876 56.3215462 -55.734375 71.81640625 C-60.16002427 76.58017813 -63.97024546 82.09823639 -66.03515625 88.29296875 C-24.45515625 88.29296875 17.12484375 88.29296875 59.96484375 88.29296875 C59.96484375 92.58296875 59.96484375 96.87296875 59.96484375 101.29296875 C58.31484375 101.29296875 56.66484375 101.29296875 54.96484375 101.29296875 C54.83207031 101.91945313 54.69929687 102.5459375 54.5625 103.19140625 C54.38589844 104.00867188 54.20929688 104.8259375 54.02734375 105.66796875 C53.85332031 106.48007813 53.67929688 107.2921875 53.5 108.12890625 C52.96484375 110.29296875 52.96484375 110.29296875 51.96484375 112.29296875 C51.30484375 112.29296875 50.64484375 112.29296875 49.96484375 112.29296875 C49.75859375 112.95296875 49.55234375 113.61296875 49.33984375 114.29296875 C44.11579921 125.6908841 34.29992725 133.51311426 22.96484375 138.29296875 C19.00484375 139.28296875 15.04484375 140.27296875 10.96484375 141.29296875 C10.96484375 153.83296875 10.96484375 166.37296875 10.96484375 179.29296875 C-21.85058741 179.89508675 -21.85058741 179.89508675 -32.03515625 175.29296875 C-33.14375 174.79539062 -34.25234375 174.2978125 -35.39453125 173.78515625 C-48.96524803 167.06233572 -59.28202907 156.21484738 -67.03515625 143.29296875 C-67.03515625 142.63296875 -67.03515625 141.97296875 -67.03515625 141.29296875 C-84.19515625 141.29296875 -101.35515625 141.29296875 -119.03515625 141.29296875 C-119.36515625 142.28296875 -119.69515625 143.27296875 -120.03515625 144.29296875 C-122.42296864 134.07313173 -123.55542455 124.51521813 -123.47265625 113.98046875 C-123.4699472 113.30864563 -123.46723816 112.63682251 -123.46444702 111.94464111 C-123.2709718 80.17798629 -110.07051619 53.39741614 -87.76953125 31.01953125 C-73.81594856 17.85141514 -55.90728524 7.25814726 -37.03515625 3.29296875 C-35.86316177 3.0415361 -34.6911673 2.79010345 -33.48365784 2.53105164 C-22.25480288 0.26494279 -11.42630063 -0.10321952 0 0 Z " fill="#6EC0EA" transform="translate(136.03515625,85.70703125)"/>
<path d="M0 0 C6.42243113 3.45221957 10.6277136 8.00521941 12.92578125 15.03515625 C13.50687499 20.13950288 13.45299153 25.22050159 13.41162109 30.34863281 C13.41376968 31.89682841 13.41765142 33.44502243 13.42312622 34.99320984 C13.43278571 39.18158508 13.41755615 43.36953126 13.39722013 47.55785465 C13.37958119 51.95512929 13.38317563 56.35239201 13.38394165 60.74969482 C13.38207084 68.13707602 13.36474167 75.52429254 13.33740234 82.91162109 C13.30600053 91.42760568 13.29540475 99.94340978 13.29687345 108.4594481 C13.29822975 117.55482401 13.28431253 126.6501312 13.26598024 135.74548626 C13.26173725 138.35191552 13.26030054 140.95833354 13.25950241 143.56476593 C13.2574773 147.67870376 13.24513711 151.79249301 13.22517014 155.90638161 C13.21938095 157.40746715 13.21685689 158.90856981 13.21802521 160.40966606 C13.22375468 172.26374983 12.9239822 183.6686087 7.17578125 194.28515625 C6.81871094 194.96698975 6.46164062 195.64882324 6.09375 196.35131836 C-1.00847816 209.64094914 -10.2235971 218.46495171 -24.70703125 223.23046875 C-40.47090946 227.83381906 -54.86686001 227.42136188 -69.69921875 219.78515625 C-85.72271062 210.21155371 -93.74215644 196.98051876 -101.04150391 180.34619141 C-101.75068647 178.75916488 -102.4919054 177.18618706 -103.25927734 175.62646484 C-106.10013769 169.73895529 -106.10013769 169.73895529 -105.97265625 166.27734375 C-104.99073998 163.82682229 -103.93078381 161.49639784 -102.69921875 159.16015625 C-99.86549016 153.65509039 -97.47114244 148.04190312 -95.19921875 142.28515625 C-93.78098838 138.70992151 -92.25649602 135.2110167 -90.63671875 131.72265625 C-88.75681673 127.6514574 -87.09155109 123.54438878 -85.51171875 119.34765625 C-83.64193545 114.38918027 -81.55264613 109.71663019 -79.07421875 105.03515625 C-75.69285644 108.14313939 -74.21908449 111.81165493 -72.44921875 115.97265625 C-71.73639823 117.61489654 -71.02283006 119.25681247 -70.30859375 120.8984375 C-69.94056641 121.74873535 -69.57253906 122.5990332 -69.19335938 123.47509766 C-67.76455936 126.74350886 -66.28561993 129.98778366 -64.80541992 133.2331543 C-60.42449217 142.84489625 -56.31292383 152.55127846 -52.34814453 162.34228516 C-51.75042236 163.80287354 -51.75042236 163.80287354 -51.140625 165.29296875 C-50.78943604 166.16066895 -50.43824707 167.02836914 -50.07641602 167.92236328 C-49.14777393 170.18548547 -49.14777393 170.18548547 -47.07421875 172.03515625 C-44.57421875 172.36848958 -44.57421875 172.36848958 -42.07421875 172.03515625 C-39.33675586 169.29769336 -39.82379974 167.79779963 -39.82266235 163.96408081 C-39.81727951 162.66869888 -39.81189667 161.37331696 -39.80635071 160.03868103 C-39.8103654 158.59463458 -39.81453633 157.15058856 -39.81884766 155.70654297 C-39.81609885 154.19215201 -39.81241962 152.67776249 -39.80787659 151.16337585 C-39.79975094 147.89651418 -39.79759961 144.629721 -39.79982376 141.36285019 C-39.80265263 136.19367617 -39.7883193 131.02463933 -39.77084351 125.85549927 C-39.7237806 111.15433836 -39.69988586 96.45318597 -39.69335938 81.75195312 C-39.68960457 73.63677241 -39.67153781 65.52174613 -39.63826501 57.40663159 C-39.61807506 52.27224324 -39.61566948 47.1382539 -39.62654519 42.00384212 C-39.62915939 38.80101623 -39.61511308 35.59842068 -39.59646416 32.39565468 C-39.5911582 30.91546914 -39.59261159 29.43524076 -39.60149956 27.9550724 C-39.6525316 18.70670316 -39.41053173 11.98355317 -33.109375 4.79296875 C-32.45839844 4.25414063 -31.80742187 3.7153125 -31.13671875 3.16015625 C-30.48832031 2.60585937 -29.83992188 2.0515625 -29.171875 1.48046875 C-21.24786681 -3.97927618 -8.75264698 -3.54391544 0 0 Z " fill="#8B34B8" transform="translate(366.07421875,87.96484375)"/>
<path d="M0 0 C0.99 0 1.98 0 3 0 C3 4.29 3 8.58 3 13 C1.35 13 -0.3 13 -2 13 C-2.13277344 13.62648437 -2.26554688 14.25296875 -2.40234375 14.8984375 C-2.57894531 15.71570313 -2.75554687 16.53296875 -2.9375 17.375 C-3.11152344 18.18710938 -3.28554687 18.99921875 -3.46484375 19.8359375 C-4 22 -4 22 -5 24 C-5.66 24 -6.32 24 -7 24 C-7.20625 24.66 -7.4125 25.32 -7.625 26 C-12.84904454 37.39791535 -22.6649165 45.22014551 -34 50 C-37.96 50.99 -41.92 51.98 -46 53 C-46 65.54 -46 78.08 -46 91 C-78.81543116 91.602118 -78.81543116 91.602118 -89 87 C-90.10859375 86.50242187 -91.2171875 86.00484375 -92.359375 85.4921875 C-105.93009178 78.76936697 -116.24687282 67.92187863 -124 55 C-124 54.34 -124 53.68 -124 53 C-141.16 53 -158.32 53 -176 53 C-176.33 53.99 -176.66 54.98 -177 56 C-177 53.69 -177 51.38 -177 49 C-168.88170228 44.64419107 -160.43318575 41.32574525 -151.8125 38.125 C-150.76260391 37.73248047 -150.76260391 37.73248047 -149.6914978 37.33203125 C-138.01508506 32.97465273 -126.25096025 29.10576269 -114.26953125 25.66552734 C-111.26091332 24.78326697 -108.29007863 23.7937475 -105.3125 22.8125 C-90.48103527 18.2698786 -75.01051676 16.32842918 -59.67016602 14.37915039 C-56.86563842 13.98092132 -54.09408817 13.470942 -51.30859375 12.95703125 C-44.08228355 11.73195763 -36.87852046 11.50907114 -29.5625 11.3125 C-28.24701172 11.26544922 -26.93152344 11.21839844 -25.57617188 11.16992188 C-17.31019925 10.92042938 -9.22874953 11.17686262 -1 12 C-0.92330078 11.165896 -0.84660156 10.33179199 -0.76757812 9.47241211 C-0.58463542 7.48291016 -0.40169271 5.4934082 -0.21875 3.50390625 C-0.05845072 1.75417336 -0.05845072 1.75417336 0 0 Z " fill="#5FA2DD" transform="translate(193,174)"/>
<path d="M0 0 C6.44882479 3.46640683 10.53749974 8.01545894 12.92578125 15.03515625 C13.45802092 19.45942021 13.39262719 23.83444802 13.31640625 28.28515625 C13.31074646 29.53901123 13.30508667 30.79286621 13.29925537 32.0847168 C13.28074263 35.39267001 13.24490649 38.6998209 13.20043945 42.00750732 C13.15926943 45.39292664 13.14119839 48.77846416 13.12109375 52.1640625 C13.07711719 58.78807043 13.01027192 65.41154782 12.92578125 72.03515625 C-3.92092679 81.67742669 -3.92092679 81.67742669 -11.44921875 84.84765625 C-12.44042725 85.26664185 -12.44042725 85.26664185 -13.45166016 85.6940918 C-15.32272672 86.48189726 -17.19832176 87.25892301 -19.07421875 88.03515625 C-20.02296875 88.44765625 -20.97171875 88.86015625 -21.94921875 89.28515625 C-26.05490862 91.03007445 -29.97383575 92.30713991 -34.36328125 93.140625 C-35.24967285 93.31102295 -36.13606445 93.4814209 -37.04931641 93.65698242 C-37.71753418 93.78177979 -38.38575195 93.90657715 -39.07421875 94.03515625 C-39.16708752 83.87308008 -39.23806925 73.71110564 -39.28146744 63.5486908 C-39.30230131 58.8293453 -39.3305418 54.11029114 -39.37597656 49.39111328 C-39.4195847 44.83289749 -39.44338743 40.27496111 -39.45372772 35.71655273 C-39.46109231 33.98148198 -39.47547358 32.24642572 -39.49713898 30.51147461 C-39.52637287 28.07242334 -39.53016656 25.63451206 -39.52832031 23.1953125 C-39.54270142 22.48536636 -39.55708252 21.77542023 -39.57189941 21.04396057 C-39.5196904 14.6281331 -37.29029152 9.56403452 -33.109375 4.79296875 C-32.45839844 4.25414063 -31.80742187 3.7153125 -31.13671875 3.16015625 C-30.48832031 2.60585937 -29.83992188 2.0515625 -29.171875 1.48046875 C-21.24786681 -3.97927618 -8.75264698 -3.54391544 0 0 Z " fill="#BC84D9" transform="translate(366.07421875,87.96484375)"/>
<path d="M0 0 C1.65 0 3.3 0 5 0 C5.00586624 0.69046921 5.01173248 1.38093842 5.01777649 2.09233093 C5.0817108 9.2788651 5.16613123 16.46495148 5.26245117 23.65112305 C5.29735011 26.33306601 5.3249887 29.01493801 5.34643555 31.69702148 C5.37997146 35.55222433 5.43228927 39.40678475 5.48828125 43.26171875 C5.49467117 44.46084396 5.5010611 45.65996918 5.50764465 46.89543152 C5.53733589 48.5766082 5.53733589 48.5766082 5.56762695 50.29174805 C5.58428154 51.76734444 5.58428154 51.76734444 5.60127258 53.27275085 C6.07446316 56.50931937 7.04152728 58.39377246 9 61 C12.07561246 62.35980881 12.07561246 62.35980881 15 63 C8.72086648 70.92684941 2.75432611 74.47288911 -7 77 C-7.5563916 77.17563477 -8.1127832 77.35126953 -8.68603516 77.53222656 C-11.94153407 78.19033333 -15.07083181 78.11083003 -18.390625 78.09765625 C-19.09523865 78.0962413 -19.79985229 78.09482635 -20.52581787 78.09336853 C-22.76725584 78.08778933 -25.00859243 78.07524073 -27.25 78.0625 C-28.77343605 78.05748231 -30.29687368 78.05291987 -31.8203125 78.04882812 C-35.54690772 78.03782674 -39.27344396 78.02057646 -43 78 C-45.13131517 69.76548242 -45.23837775 61.8434457 -45.125 53.375 C-45.11597656 52.08464844 -45.10695312 50.79429687 -45.09765625 49.46484375 C-45.0742848 46.30969751 -45.04152091 43.15495074 -45 40 C-43.41638672 39.55914062 -43.41638672 39.55914062 -41.80078125 39.109375 C-27.62053909 34.97043484 -15.31266919 28.58959628 -7.6875 15.5625 C-7.21699219 14.69753906 -6.74648437 13.83257812 -6.26171875 12.94140625 C-5.84535156 12.30074219 -5.42898437 11.66007813 -5 11 C-4.34 11 -3.68 11 -3 11 C-1.515 5.555 -1.515 5.555 0 0 Z " fill="#6269B9" transform="translate(191,187)"/>
<path d="M0 0 C25.08 0 50.16 0 76 0 C76.33 12.54 76.66 25.08 77 38 C44.18456884 38.602118 44.18456884 38.602118 34 34 C32.89140625 33.50242187 31.7828125 33.00484375 30.640625 32.4921875 C17.73311354 26.09791339 6.82649163 15.77618617 0 3 C0 2.01 0 1.02 0 0 Z " fill="#F9FBFC" transform="translate(70,227)"/>
<path d="M0 0 C7.25801291 -0.30520473 14.51436524 -0.51476734 21.77734375 -0.65917969 C24.24542048 -0.71939247 26.71307146 -0.80118853 29.1796875 -0.90527344 C49.19438601 -1.72845862 49.19438601 -1.72845862 53.87988281 1.15814209 C57.01900726 4.26055394 58.47269117 7.94216322 60 12 C61.45717015 14.02530671 61.45717015 14.02530671 63 15.625 C65 18 65 18 65 20 C51.94397459 19.04868157 39.09031548 17.15154853 26.1875 15 C24.99392883 14.80286407 24.99392883 14.80286407 23.77624512 14.60174561 C21.46839017 14.21896464 19.1617555 13.82960898 16.85546875 13.4375 C16.16750717 13.32290436 15.47954559 13.20830872 14.77073669 13.09024048 C2.84293101 11.02617688 2.84293101 11.02617688 0.5625 8.25 C-0.13547887 5.45808451 -0.03526568 2.86827513 0 0 Z " fill="#3186BC" transform="translate(17,227)"/>
<path d="M0 0 C1.65 0 3.3 0 5 0 C5.50705292 15.34810174 -1.4096629 27.77529178 -11.56005859 38.73730469 C-20.5572329 47.94106969 -32.13041119 51.8047143 -44 56 C-44 50.39 -44 44.78 -44 39 C-42.246875 38.62875 -40.49375 38.2575 -38.6875 37.875 C-23.9205573 34.15282599 -13.9961086 25.67788813 -6 13 C-5.67 12.34 -5.34 11.68 -5 11 C-4.34 11 -3.68 11 -3 11 C-1.515 5.555 -1.515 5.555 0 0 Z " fill="#505CAA" transform="translate(191,187)"/>
<path d="M0 0 C5.03099674 3.82898596 9.1821661 8.85144418 11 15 C10.505 16.485 10.505 16.485 10 18 C9.505 16.02 9.505 16.02 9 14 C7.9577124 14.00523682 6.9154248 14.01047363 5.84155273 14.01586914 C1.89966727 14.03424589 -2.04221459 14.04554881 -5.98413086 14.05493164 C-7.67619467 14.0598984 -9.36825434 14.06667408 -11.06030273 14.07543945 C-21.75794047 14.12938779 -32.33544296 13.88896364 -43 13 C-39.79268078 5.55901942 -35.92708208 0.57309453 -28.4375 -2.875 C-19.15344142 -5.8855588 -8.35379433 -5.06607563 0 0 Z " fill="#9A8CD5" transform="translate(277,176)"/>
<path d="M0 0 C0.66 0.33 1.32 0.66 2 1 C2.54078499 8.70618606 0.81165446 15.36455745 -1.33203125 22.70019531 C-2.08205562 25.28251607 -2.80750842 27.87113088 -3.53125 30.4609375 C-4.06187901 32.34913296 -4.59312532 34.23715505 -5.125 36.125 C-5.37846191 37.02573242 -5.63192383 37.92646484 -5.89306641 38.85449219 C-6.84584866 42.19143124 -7.78027286 45.45663143 -9.08203125 48.67578125 C-10.29435908 51.74529214 -10.90245546 54.83139192 -11.5625 58.0625 C-13.13467035 65.69526486 -13.13467035 65.69526486 -14 69 C-14.66 69 -15.32 69 -16 69 C-16.144375 70.093125 -16.28875 71.18625 -16.4375 72.3125 C-17 76 -17 76 -18 79 C-18.66 79 -19.32 79 -20 79 C-21.20474943 76.61153168 -22.38864958 74.21609848 -23.5625 71.8125 C-23.90474609 71.13896484 -24.24699219 70.46542969 -24.59960938 69.77148438 C-26.05870888 66.75011672 -27.03615992 64.70976758 -26.86328125 61.31640625 C-25.9301897 58.81268097 -24.8713488 56.48928591 -23.625 54.125 C-20.79127141 48.61993414 -18.39692369 43.00674687 -16.125 37.25 C-14.70676963 33.67476526 -13.18227727 30.17586045 -11.5625 26.6875 C-9.68259798 22.61630115 -8.01733234 18.50923253 -6.4375 14.3125 C-4.5677167 9.35402402 -2.47842738 4.68147394 0 0 Z " fill="#62349F" transform="translate(287,193)"/>
<path d="M0 0 C0.33 0 0.66 0 1 0 C1.12375 0.928125 1.2475 1.85625 1.375 2.8125 C2.62823257 6.06267969 2.62823257 6.06267969 4.95727539 6.94995117 C11.40051959 8.83604465 17.35768615 9.54168027 24.0625 9.5 C25.05822021 9.49863037 26.05394043 9.49726074 27.07983398 9.49584961 C35.04842294 9.33293851 42.02098387 7.84178746 49.50390625 5.19140625 C52.69600822 4.10359497 55.6656538 3.44697707 59 3 C52.72086648 10.92684941 46.75432611 14.47288911 37 17 C36.4436084 17.17563477 35.8872168 17.35126953 35.31396484 17.53222656 C32.05846593 18.19033333 28.92916819 18.11083003 25.609375 18.09765625 C24.90476135 18.0962413 24.20014771 18.09482635 23.47418213 18.09336853 C21.23274416 18.08778933 18.99140757 18.07524073 16.75 18.0625 C15.22656395 18.05748231 13.70312632 18.05291987 12.1796875 18.04882812 C8.45309228 18.03782674 4.72655604 18.02057646 1 18 C-0.2062252 14.38132441 -0.10816918 11.07493749 -0.0625 7.3125 C-0.05798828 6.61060547 -0.05347656 5.90871094 -0.04882812 5.18554688 C-0.03706927 3.45699462 -0.01913454 1.72848635 0 0 Z " fill="#5051A5" transform="translate(147,247)"/>
<path d="M0 0 C0 3.79297682 -1.2066141 5.12823126 -3.3125 8.25 C-6.03225591 12.41122654 -8.13621256 16.38104853 -10 21 C-10.97721592 22.83437388 -11.95662947 24.6675777 -12.9375 26.5 C-16.02016494 32.53529191 -17.62487482 38.481366 -19.140625 45.04296875 C-19.42421875 46.01878906 -19.7078125 46.99460938 -20 48 C-20.99 48.495 -20.99 48.495 -22 49 C-19.55626129 30.34299488 -11.60516328 14.64084632 0 0 Z " fill="#60D1F0" transform="translate(37,129)"/>
<path d="M0 0 C0.99 0 1.98 0 3 0 C3 4.29 3 8.58 3 13 C1.68 13 0.36 13 -1 13 C-0.67 8.71 -0.34 4.42 0 0 Z " fill="#8B87CA" transform="translate(193,174)"/>
<path d="M0 0 C0.66 0.33 1.32 0.66 2 1 C0.8758824 2.29243468 -0.24932592 3.58392075 -1.375 4.875 C-2.00148438 5.59429687 -2.62796875 6.31359375 -3.2734375 7.0546875 C-4.47426834 8.4076598 -5.7208345 9.7208345 -7 11 C-7.99 10.67 -8.98 10.34 -10 10 C-6.7 6.7 -3.4 3.4 0 0 Z " fill="#66D1F2" transform="translate(51,114)"/>
<path d="M0 0 C-1.44806239 4.34418718 -4.38861564 5.17253236 -8.3125 7.1875 C-8.869375 7.455625 -9.42625 7.72375 -10 8 C-10 7.01 -10 6.02 -10 5 C-8.3203125 3.61328125 -8.3203125 3.61328125 -6.125 2.3125 C-5.40570313 1.87550781 -4.68640625 1.43851562 -3.9453125 0.98828125 C-2 0 -2 0 0 0 Z " fill="#6BCFF1" transform="translate(73,100)"/>
<path d="M0 0 C0.33 0.66 0.66 1.32 1 2 C2.65 2 4.3 2 6 2 C4.515 4.475 4.515 4.475 3 7 C2.67 6.01 2.34 5.02 2 4 C1.34 4 0.68 4 0 4 C0 2.68 0 1.36 0 0 Z " fill="#63BEE4" transform="translate(18,235)"/>
</svg>
